<?xml version="1.0" encoding="utf-8"?>
<!-- Generator: Adobe Illustrator 21.0.0, SVG Export Plug-In . SVG Version: 6.00 Build 0)  -->
<svg version="1.1" id="Warstwa_1" xmlns="http://www.w3.org/2000/svg" xmlns:xlink="http://www.w3.org/1999/xlink" x="0px" y="0px"
	 viewBox="0 0 1265 457" style="enable-background:new 0 0 1265 457;" xml:space="preserve">
<style type="text/css">
	.st0{fill:#10E8B4;}
</style>
<g>
	<g>
		<path class="st0" d="M116.7,209.1c-0.2,0.2-0.3,0.4-0.4,0.6c0,0.1-0.1,0.2-0.1,0.2c-0.3,0.8-0.3,1.6,0.1,2.4
			c0.5,1.2,1.7,1.9,2.9,1.9c0.1,0,0.2,0,0.2,0l193.4-15c0.2,0,0.4-0.1,0.6-0.1c0.9-0.3,1.7-0.9,2.1-1.7c0.2-0.5,0.3-1,0.3-1.5
			c-0.1-0.7-0.3-1.4-0.8-1.9c-0.2-0.2-0.4-0.4-0.7-0.6c-0.4-0.3-0.9-0.5-1.4-0.5c-0.1,0-0.2,0-0.3,0c0,0-0.1,0-0.1,0L150.9,198
			l70.4-79c0.1-0.1,0.1-0.1,0.2-0.2c0.4-0.5,0.7-1.2,0.7-1.9c0-0.7-0.2-1.3-0.6-1.8c-0.2-0.3-0.5-0.6-0.9-0.9
			c-0.2-0.1-0.3-0.2-0.6-0.3c-0.4-0.2-0.8-0.2-1.3-0.2l0,0l0,0l0,0l0,0l0,0l0,0l0,0l0,0l0,0l0,0l0,0l0,0c-0.5,0-0.9,0.1-1.3,0.3l0,0
			l0,0l0,0c-0.1,0-0.2,0.1-0.2,0.1c-0.2,0.1-0.4,0.3-0.6,0.5l-99.7,94.2C116.9,208.8,116.8,208.9,116.7,209.1z"/>
	</g>
	<path class="st0" d="M246.3,148.7c0.2,0,0.4,0.1,0.6,0.1c1.4,0,2.6-0.9,3.1-2.2l8.6-26.9l24.3-4.5l5.8,46.2
		c0.2,1.6,1.6,2.8,3.2,2.8c0.1,0,0.1,0,0.2,0c1.7-0.1,3-1.5,3-3.2V99.7c0-1-0.5-1.9-1.2-2.5c-0.6-0.5-1.3-0.7-2-0.7
		c-0.2,0-0.5,0-0.7,0.1l-42.9,10c-1.4,0.3-2.4,1.5-2.5,3l-2.1,35.8C243.5,147,244.7,148.5,246.3,148.7z"/>
	<path class="st0" d="M213.1,309.6c-0.1-0.1-0.2-0.1-0.3-0.1c-0.2-0.1-0.4-0.2-0.6-0.2c-0.2-0.1-0.4-0.1-0.6-0.1l-46-3.5l-4.4-81
		c-0.1-1.7-1.5-3-3.2-3h0c-1.7,0-3.1,1.4-3.2,3.1l-3.3,91.7c0,0.9,0.3,1.8,1,2.4c0.6,0.6,1.4,0.9,2.2,0.9c0.1,0,0.2,0,0.2,0
		l56.7-4.2c0.9-0.1,1.8-0.5,2.3-1.3c0.1-0.2,0.2-0.3,0.3-0.5c0.1-0.3,0.2-0.6,0.3-0.9c0-0.2,0.1-0.4,0.1-0.6l0,0l0,0
		C214.6,311.2,214,310.2,213.1,309.6z"/>
	<g>
		<path class="st0" d="M250.9,315.5c0.2,0.4,0.4,0.8,0.7,1.2c0.4,0.4,0.9,0.7,1.3,0.8c0.3,0.1,0.6,0.1,0.9,0.1c0.1,0,0.2,0,0.2,0
			l43.8-3.3c0.4,0,0.8-0.1,1.2-0.3c0.3-0.1,0.5-0.3,0.7-0.5c0.7-0.6,1.1-1.4,1.1-2.4c0-1.7-1.3-3.1-2.9-3.3l-30.8-3v-54.6
			c0-0.9-0.4-1.8-1-2.3c-0.6-0.6-1.4-0.9-2.2-0.9c-0.1,0-0.2,0-0.2,0l-45,3.3c-1.6,0.1-2.9,1.5-3,3.1c-0.1,1.7,1.1,3.1,2.7,3.3
			l36.4,5.4l-4.1,52C250.7,314.6,250.7,315.1,250.9,315.5z"/>
	</g>
	<path class="st0" d="M38.3,230c-0.2-4.8-0.1-9.9,0.2-15.1c0.1-1.7,0.2-3.5,0.4-5.3c0.2-1.8,0.4-3.6,0.6-5.4
		c0.8-6.3,1.9-12.8,3.3-19.2l0,0c0.4-1.8,0.8-3.7,1.3-5.5c0.5-1.8,0.9-3.7,1.4-5.5c0.5-1.8,1-3.7,1.6-5.5c0.5-1.8,1.1-3.7,1.7-5.5
		c2.1-6.3,4.4-12.6,7-18.6l35.4,2.3l40.9,2.6c0.3,0,0.6,0,0.9-0.1c0.7-0.2,1.4-0.6,1.8-1.1c0.7-0.8,1-1.9,0.7-2.9l-18.2-74.3
		c4.7-3.1,9.5-6,14.5-8.7c1.7-0.9,3.4-1.8,5-2.7c2.5-1.3,5.1-2.6,7.7-3.8c4.3-2,8.7-3.9,13.1-5.7c1.8-0.7,3.5-1.4,5.3-2
		c7.9-2.9,15.8-5.3,23.3-7c4.2-1,8.3-1.7,12.3-2.3c0.2,0,0.5-0.1,0.7-0.2c0.3-0.1,0.6-0.3,0.9-0.5c0.3-0.2,0.5-0.5,0.7-0.8
		c0.1-0.2,0.2-0.4,0.3-0.6c0.1-0.2,0.1-0.5,0.2-0.7c0.1-0.5,0-1-0.2-1.4c-0.1-0.3-0.3-0.6-0.5-0.9c-0.1-0.2-0.3-0.3-0.4-0.5
		c-0.4-0.4-0.9-0.6-1.4-0.8c-0.4-0.1-0.7-0.2-0.9-0.2l0,0l0,0c-0.3-0.1-0.7-0.1-1.1-0.2c-0.2,0-0.3-0.1-0.5-0.1
		c-0.3-0.1-0.7-0.1-1.1-0.1c-0.8-0.1-1.8-0.1-2.9-0.2c-0.8,0-1.7-0.1-2.7-0.1c-1,0-2,0-3.1,0.1c-0.7,0-1.5,0.1-2.3,0.1
		c-1.6,0.1-3.3,0.2-5.1,0.4c-0.9,0.1-1.8,0.2-2.8,0.3c-1,0.1-2,0.2-3,0.4c-1,0.2-2.1,0.3-3.1,0.5c-2.2,0.4-4.4,0.8-6.8,1.3
		c-0.6,0.1-1.3,0.3-1.9,0.4c-3.9,0.9-7.7,1.9-11.6,3.1c-0.6,0.2-1.3,0.4-1.9,0.6c-5.2,1.7-10.4,3.6-15.5,5.8
		c-5.5,2.3-10.9,5-16.3,7.9c-0.8,0.4-1.5,0.8-2.3,1.3c-6.2,3.4-12.2,7.2-18.2,11.3c-1.1,0.8-1.6,2.2-1.3,3.5c0,0.1,0.1,0.2,0.1,0.3
		l24.7,66.2l-69.5-12.8c-0.5-0.1-0.9-0.1-1.3,0c-0.1,0-0.2,0.1-0.2,0.1c-0.2,0.1-0.5,0.2-0.7,0.3c-0.3,0.2-0.6,0.4-0.8,0.7
		c-0.2,0.2-0.3,0.4-0.4,0.7c-0.7,1.5-1.4,3.1-2.1,4.6c-0.4,1-0.9,2-1.3,3c-1.7,4.1-3.3,8.3-4.7,12.5c-1.2,3.5-2.3,7-3.3,10.5
		c-0.2,0.9-0.5,1.7-0.7,2.5c-0.7,2.5-1.3,5.1-1.9,7.6c-2.5,11.1-4,22.1-4.3,32.7c-0.4,12.1,0.8,21.5,2,27.5c0.1,0.3,0.1,0.6,0.2,0.8
		c0.1,0.4,0.2,0.8,0.3,1.1c0.1,0.5,0.2,0.9,0.3,1.3c0.1,0.5,0.2,0.9,0.4,1.2c0.2,0.8,0.5,1.4,0.7,1.8c0.1,0.1,0.2,0.3,0.2,0.4
		c0.2,0.3,0.3,0.5,0.5,0.7c0.5,0.5,1.1,0.9,1.7,1c0,0,0.1,0,0.1,0c0,0,0.1,0,0.1,0c0.3,0.1,0.7,0.1,1.1,0c0.1,0,0.2-0.1,0.3-0.1
		c0.5-0.1,0.9-0.4,1.2-0.7c0.1-0.1,0.2-0.2,0.3-0.2c0.1-0.1,0.2-0.2,0.2-0.3c0.2-0.3,0.4-0.6,0.5-1c0.1-0.2,0.1-0.5,0.1-0.7
		C38.3,230.3,38.3,230.2,38.3,230z"/>
	<path class="st0" d="M326.7,376.3c0-0.2-0.1-0.5-0.1-0.6c0-0.1,0-0.1-0.1-0.1c-0.1-0.1-0.1-0.2-0.2-0.3c-0.4-0.7-1-1.3-1.8-1.6
		c-0.1,0-0.2-0.1-0.3-0.1c-0.6-0.1-1.3-0.1-1.9,0.1c-0.2,0.1-0.4,0.2-0.6,0.3c-3.4,2.2-7,4.2-10.9,6.2c-5.4,2.8-11.1,5.4-17.1,7.8
		c-1.4,0.6-2.8,1.1-4.2,1.6c-1.2,0.5-2.5,0.9-3.7,1.3c-1.8,0.6-3.5,1.2-5.4,1.8c-2.7,0.9-5.4,1.7-8.2,2.5c-1.2,0.3-2.5,0.7-3.7,1
		c-3.9,1-7.8,2-11.7,2.8c-0.8,0.2-1.7,0.3-2.5,0.5c-5.2,1-10.4,1.9-15.5,2.5l-34.2-68.4c-0.2-0.3-0.4-0.6-0.6-0.9
		c-0.2-0.2-0.3-0.3-0.6-0.4c-0.1-0.1-0.2-0.1-0.3-0.2c-0.2-0.1-0.4-0.2-0.7-0.2c-0.1,0-0.2,0-0.3-0.1c-0.1,0-0.3-0.1-0.4-0.1
		c-0.3,0-0.5,0-0.8,0c-0.6,0.1-1.3,0.4-1.7,0.9l-20.7,20l-34.3,33.2c-20.8-10.3-41.4-25.1-56.9-40.7c-0.6-0.6-1.2-1.3-1.8-1.9
		c-1-1.1-2-2.1-3-3.2c-0.7-0.8-1.5-1.7-2.2-2.5c-1.7-1.9-3.3-3.8-4.7-5.7c-0.2-0.2-0.4-0.4-0.6-0.6c-0.1-0.1-0.2-0.1-0.2-0.2
		c-0.2-0.1-0.3-0.2-0.5-0.2c-0.1,0-0.2-0.1-0.3-0.1c-0.1,0-0.2-0.1-0.3-0.1c-0.1,0-0.2,0-0.3-0.1c-0.1,0-0.1,0-0.2,0
		c-0.1,0-0.1,0-0.2,0c-0.7,0-1.4,0.2-2,0.6c-0.1,0.1-0.2,0.2-0.3,0.2c-0.1,0.1-0.2,0.2-0.2,0.3c-0.2,0.2-0.3,0.4-0.5,0.7
		c-0.1,0.1-0.1,0.2-0.1,0.3c-0.1,0.1-0.1,0.3-0.1,0.4c-0.1,0.4-0.1,0.9,0,1.5c0,0.1,0,0.2,0.1,0.3c0.2,0.9,0.8,2.4,1.8,4.4
		c0.3,0.6,0.6,1.2,1,1.8c0.2,0.4,0.4,0.8,0.6,1.2c0.2,0.4,0.5,0.9,0.7,1.3c0.2,0.3,0.3,0.6,0.5,0.9c0.5,0.8,1,1.5,1.5,2.4
		c0.4,0.7,0.9,1.3,1.4,2c0.2,0.3,0.5,0.7,0.7,1.1c2.7,3.9,6.2,8.4,10.4,13.1c1.3,1.5,2.7,3,4.1,4.4c1.9,1.9,3.8,3.8,5.8,5.7
		c4.5,4.2,9.4,8.3,14.5,12.2c0.9,0.7,1.8,1.4,2.7,2c1,0.7,2,1.4,3,2.2c1.8,1.3,3.7,2.6,5.7,3.8c1.1,0.7,2.2,1.4,3.3,2.1
		c2,1.2,3.9,2.4,6,3.5c1.9,1.1,3.9,2.2,5.9,3.3c3.4,1.8,6.9,3.6,10.5,5.2c0.2,0.1,0.4,0.2,0.7,0.2c0.1,0,0.3,0.1,0.5,0.1
		c0.5,0,0.9,0,1.3-0.2c0.6-0.2,1.1-0.5,1.4-1l44.7-54.7l24,66.5c0.1,0.3,0.2,0.5,0.4,0.7c0.1,0.1,0.2,0.2,0.2,0.3
		c0.1,0.1,0.2,0.2,0.3,0.3c0.4,0.3,0.9,0.6,1.4,0.7l0,0l0,0c0.1,0,0.2,0,0.3,0.1c0.1,0,0.3,0,0.5,0c0.1,0,0.2,0,0.3,0
		c7.4-0.7,14.7-1.8,21.8-3.3c0.9-0.2,1.8-0.4,2.6-0.6c5.3-1.1,10.4-2.5,15.5-4c0.8-0.2,1.7-0.5,2.5-0.8c4.8-1.5,9.4-3.2,13.9-5
		c3.9-1.6,7.6-3.3,11.3-5.1c0.6-0.3,1.2-0.6,1.8-0.9c1.2-0.6,2.4-1.2,3.5-1.9c16.2-8.9,25.3-17.7,27-20.4c0.3-0.4,0.4-0.8,0.5-1.2
		C326.7,377.1,326.7,376.7,326.7,376.3z"/>
	<path class="st0" d="M418,233.7c0.5-3.4,0.8-7,1.1-10.5c0.1-1.8,0.2-3.5,0.3-5.3c0.1-1.8,0.2-3.6,0.2-5.4c0-1.8,0.1-3.6,0.1-5.4
		s0-3.7-0.1-5.5c-0.1-3.7-0.3-7.4-0.6-11.1c0-0.1,0-0.2,0-0.3c0-0.2-0.1-0.3-0.1-0.5c-0.1-0.4-0.3-0.8-0.6-1.1
		c-0.1-0.1-0.2-0.2-0.4-0.3c-0.4-0.3-0.9-0.6-1.4-0.7l0,0c-0.1,0-0.1,0-0.2,0l-69.7-12.1l46.1-53.6c1-1.1,1-2.7,0.2-3.9
		c-8-11.3-16.8-21.7-26.2-30.7c-7.8-7.5-16.1-14.2-24.7-19.9c-4.3-2.9-8.5-5.3-12.4-7.4c-0.8-0.4-1.5-0.8-2.3-1.2
		c-1.1-0.6-2.2-1.1-3.3-1.6c-1.8-0.8-3.5-1.6-5.1-2.2c-0.3-0.1-0.6-0.3-0.9-0.4c-1.2-0.5-2.4-0.9-3.5-1.3c-0.3-0.1-0.5-0.2-0.8-0.3
		c-1.3-0.4-2.5-0.8-3.5-1c-0.2-0.1-0.4-0.1-0.6-0.1c0,0,0,0-0.1,0l0,0c-0.1,0-0.2-0.1-0.3-0.1c-0.1,0-0.2-0.1-0.3-0.1
		c-0.2-0.1-0.4-0.1-0.7-0.1c-0.2,0-0.5-0.1-0.7-0.1c-1.1-0.1-2.3,0.1-3.2,1.2c-0.2,0.3-0.4,0.6-0.5,0.9c-0.1,0.2-0.1,0.5-0.2,0.7
		c-0.1,0.3-0.1,0.7,0,1.1c0.1,0.6,0.4,1.1,0.8,1.6c0.1,0.1,0.2,0.2,0.3,0.2c0.2,0.2,0.4,0.3,0.6,0.4c5,2.6,10.1,5.8,15.1,9.3
		c5.1,3.5,10.1,7.5,15.1,11.7c2.9,2.4,5.7,4.9,8.4,7.5c1.4,1.3,2.7,2.6,4.1,4c1.4,1.3,2.7,2.7,4,4.1c6.6,6.9,12.8,14.2,18.3,21.7
		l-42.7,63.4c-0.2,0.3-0.4,0.7-0.5,1.1c-0.1,0.2-0.1,0.5-0.1,0.8c0,0.4,0.1,0.8,0.2,1.1c0.1,0.1,0.1,0.2,0.1,0.4
		c0.2,0.3,0.4,0.7,0.7,0.9c0.2,0.2,0.4,0.3,0.6,0.5s0.5,0.2,0.7,0.3l73.3,21.8c1,17.6-0.4,36.4-3.7,53.7c-1.2,6.4-2.7,12.6-4.5,18.4
		c-0.5,1.7-1,3.3-1.5,4.9c-0.3,0.8-0.5,1.6-0.8,2.4c-0.8,2.4-1.7,4.7-2.6,6.9c-0.1,0.2-0.2,0.5-0.2,0.7c-0.1,0.3-0.1,0.7,0,1.1
		c0.1,0.3,0.2,0.7,0.3,1c0.2,0.3,0.4,0.6,0.6,0.8c0.4,0.4,0.9,0.7,1.5,0.8c0,0,0.1,0,0.1,0c0.1,0,0.2,0,0.3,0.1c0.1,0,0.1,0,0.2,0
		c0.2,0,0.3,0,0.5,0c0.1,0,0.3,0,0.4-0.1c0.1-0.1,0.3-0.1,0.4-0.1c0.4-0.2,0.9-0.4,1.3-0.8c1.5-1.3,4.8-5.9,8.5-13.4
		c2.2-4.5,4.6-10.1,6.8-16.7c1.7-5,3.2-10.3,4.4-15.7C416.3,245,417.3,239.4,418,233.7z M409.3,259.8L409.3,259.8L409.3,259.8
		L409.3,259.8L409.3,259.8z"/>
</g>
<g>
	<path class="st0" d="M473.9,226v-84h10.8v36h44.4v-36h10.8v84h-10.8v-38.4h-44.4V226H473.9z"/>
	<path class="st0" d="M553.7,215.2v-45.6l10.8-10.8h37.2l10.8,10.8v45.6L601.7,226h-37.2L553.7,215.2z M564.5,216.4h37.2v-48h-37.2
		V216.4z"/>
	<path class="st0" d="M686.3,158.8V226h-49.2l-10.8-10.8v-56.4h10.8v57.6h38.4v-57.6H686.3z"/>
	<path class="st0" d="M700.1,226v-9.6h48v-19.8h-48v-27l10.8-10.8h48v9.6h-48V187h48v28.6L748.5,226H700.1z"/>
	<path class="st0" d="M772.1,215.2v-45.6l10.8-10.8h46.8V196h-46.8v20.4h44.4v9.6h-44.4L772.1,215.2z M782.9,187.6l36.5-1.2v-18
		h-36.5V187.6z"/>
	<path class="st0" d="M843.5,226v-84h10.8v16.8h38.4l10.8,10.8V226h-10.8v-57.6h-38.4V226H843.5z"/>
	<path class="st0" d="M977.9,158.8V226h-49.2l-10.8-10.8v-56.4h10.8v57.6h38.4v-57.6H977.9z"/>
	<path class="st0" d="M992.3,226v-67.2h49.2l10.8,10.8V226h-10.8v-57.6h-38.4V226H992.3z"/>
	<path class="st0" d="M1066.7,148l10.8-6v19.2h31.2v9.6h-31.2v45.6h31.2v9.6h-31.2l-10.8-10.8V148z"/>
	<path class="st0" d="M1117.7,215.2v-45.6l10.8-10.8h46.8V196h-46.8v20.4h44.4v9.6h-44.4L1117.7,215.2z M1128.5,187.6l36.5-1.2v-18
		h-36.5V187.6z"/>
	<path class="st0" d="M1189.1,226v-56.4l10.8-10.8h36v9.6h-36V226H1189.1z"/>
</g>
<g>
	<path class="st0" d="M484.3,324.8c-1.8,0-3.4-0.4-4.7-1.1c-1.3-0.7-2.4-1.9-3.1-3.5c-0.7-1.6-1.1-3.8-1.1-6.5v-17.4h3.3v17.4
		c0,2.1,0.3,3.8,0.8,5c0.5,1.2,1.2,2,2.1,2.4c0.9,0.5,1.8,0.7,2.8,0.7c1,0,2-0.2,2.8-0.7c0.9-0.5,1.6-1.3,2.1-2.4
		c0.5-1.2,0.8-2.8,0.8-5v-17.4h3.3v17.4c0,2.7-0.4,4.8-1.1,6.4c-0.7,1.6-1.8,2.8-3.1,3.5C487.7,324.4,486.1,324.8,484.3,324.8z"/>
	<path class="st0" d="M500.8,332.4v-28.5h3.3v1.8c0.6-0.6,1.4-1.1,2.2-1.6c0.8-0.5,2-0.7,3.3-0.7c1.8,0,3.4,0.4,4.8,1.3
		c1.3,0.9,2.3,2.1,3.1,3.7s1.1,3.5,1.1,5.7c0,2.3-0.4,4.2-1.1,5.8c-0.8,1.6-1.8,2.8-3.1,3.7c-1.3,0.8-2.8,1.3-4.5,1.3
		c-1.5,0-2.7-0.2-3.5-0.7c-0.9-0.5-1.6-1.1-2.1-1.7v8.5L500.8,332.4z M509.3,321.8c1.9,0,3.3-0.7,4.3-2c1-1.3,1.5-3.2,1.5-5.7
		c0-2.3-0.5-4.2-1.6-5.6c-1-1.4-2.5-2.1-4.4-2.1c-1.1,0-2.1,0.3-3,0.8c-0.9,0.5-1.6,1.2-2.1,2.1v9.7c0.6,0.8,1.4,1.5,2.2,2
		C507.1,321.5,508.1,321.8,509.3,321.8z"/>
	<path class="st0" d="M533.6,324.8c-1.9,0-3.6-0.4-5-1.3c-1.4-0.8-2.5-2.1-3.3-3.7c-0.8-1.6-1.2-3.5-1.2-5.8c0-2.2,0.4-4.1,1.2-5.7
		c0.8-1.6,1.9-2.8,3.3-3.7c1.4-0.9,3.1-1.3,5-1.3c1.9,0,3.6,0.4,5,1.3c1.4,0.8,2.5,2.1,3.3,3.7c0.8,1.6,1.2,3.5,1.2,5.8
		c0,2.2-0.4,4.1-1.2,5.7c-0.8,1.6-1.9,2.8-3.3,3.7C537.2,324.4,535.5,324.8,533.6,324.8z M533.6,321.8c2,0,3.5-0.7,4.6-2.1
		c1.1-1.4,1.6-3.3,1.6-5.7c0-2.4-0.5-4.3-1.6-5.6c-1-1.4-2.6-2.1-4.6-2.1c-2,0-3.5,0.7-4.6,2c-1.1,1.3-1.6,3.3-1.6,5.7
		c0,2.4,0.5,4.2,1.6,5.6C530.1,321.1,531.6,321.8,533.6,321.8z"/>
	<path class="st0" d="M551.7,298.3l-1.5-2.9h9.6l-1.1,2.9H551.7z M550.9,324.3v-2.9h14.7v2.9H550.9z M556.6,324.3v-27.9l3.2-1v28.9
		H556.6z"/>
	<path class="st0" d="M582.4,324.8c-1.7,0-3.2-0.3-4.3-1s-2-1.7-2.6-3c-0.6-1.4-0.8-3.2-0.8-5.5v-11.4h3.3v12c0,2.1,0.5,3.6,1.3,4.5
		c0.9,0.9,2,1.3,3.4,1.3c0.9,0,1.8-0.2,2.6-0.5c0.8-0.3,1.4-0.9,1.8-1.8c0.5-0.8,0.7-2,0.7-3.5v-12.1h3.3v20.4h-3.3v-2
		c-0.7,0.9-1.5,1.5-2.4,1.9C584.5,324.6,583.5,324.8,582.4,324.8z"/>
	<path class="st0" d="M603.3,332.8l-1.5-2.7c1.6-0.2,2.8-0.5,3.6-0.8c0.9-0.4,1.4-0.9,1.8-1.6s0.5-1.6,0.5-2.8v-21h3.2v21.3
		c0,1.3-0.2,2.4-0.5,3.4c-0.3,0.9-0.8,1.7-1.5,2.3c-0.6,0.6-1.4,1.1-2.3,1.4C605.7,332.5,604.6,332.7,603.3,332.8z M602,306.8v-2.9
		h7.5v2.9H602z M609.3,300c-0.6,0-1.1-0.2-1.5-0.6s-0.6-0.9-0.6-1.5c0-0.6,0.2-1.1,0.6-1.5c0.4-0.4,0.9-0.6,1.5-0.6
		c0.6,0,1.1,0.2,1.5,0.6c0.4,0.4,0.6,0.9,0.6,1.5c0,0.6-0.2,1.1-0.6,1.5S609.9,300,609.3,300z"/>
	<path class="st0" d="M656.7,324.8c-1.5,0-2.9-0.3-4.2-1s-2.4-1.5-3.3-2.6l2.2-2c0.6,0.7,1.4,1.3,2.4,1.9c1,0.6,2,0.8,3.2,0.8
		c1.1,0,2.1-0.2,2.8-0.7s1.2-1.1,1.2-2c0-0.7-0.2-1.4-0.7-1.9c-0.5-0.5-1.1-0.9-1.9-1.3c-0.8-0.4-1.6-0.7-2.5-1.1
		c-1.2-0.4-2.2-0.9-3.2-1.5c-1-0.5-1.8-1.2-2.3-2c-0.6-0.8-0.9-1.7-0.9-2.9c0-1.1,0.3-2,0.9-2.8c0.6-0.8,1.5-1.4,2.5-1.8
		c1.1-0.4,2.3-0.6,3.7-0.6c1.5,0,2.9,0.3,4,0.9s2.2,1.3,3,2.3l-2.2,1.8c-0.5-0.5-1.2-1-2-1.4c-0.8-0.4-1.8-0.7-3-0.7
		c-1.2,0-2.1,0.2-2.8,0.6c-0.7,0.4-1.1,1-1.1,1.8c0,0.6,0.2,1.1,0.7,1.6c0.5,0.4,1,0.8,1.8,1.1c0.7,0.3,1.5,0.7,2.3,1
		c1.1,0.4,2.1,0.9,3.2,1.4s1.9,1.2,2.6,2s1,1.9,1,3.3c0,1.8-0.7,3.2-2,4.2C660.7,324.3,658.9,324.8,656.7,324.8z"/>
	<path class="st0" d="M675.3,324.3l-5.1-20.4h3.2l3.1,13.6c0.1,0.2,0.1,0.5,0.2,0.8c0.1,0.3,0.1,0.6,0.1,0.9
		c0.1-0.4,0.1-0.7,0.2-0.9c0-0.3,0.1-0.5,0.2-0.8l3-13.5h2.6l3,13.5c0.1,0.3,0.1,0.6,0.2,0.9c0.1,0.3,0.1,0.6,0.2,1
		c0-0.3,0.1-0.6,0.2-1c0.1-0.3,0.1-0.6,0.2-0.9l3-13.5h3.2l-5.1,20.4h-2.8l-3-13c-0.1-0.3-0.1-0.6-0.2-1c-0.1-0.4-0.1-0.7-0.2-1.1
		c-0.1,0.4-0.1,0.8-0.2,1.1c-0.1,0.4-0.1,0.7-0.2,0.9l-2.9,13.1H675.3z"/>
	<path class="st0" d="M706.1,324.8c-1.9,0-3.6-0.4-5-1.3c-1.4-0.8-2.5-2.1-3.3-3.7c-0.8-1.6-1.2-3.5-1.2-5.8c0-2.2,0.4-4.1,1.2-5.7
		c0.8-1.6,1.9-2.8,3.3-3.7c1.4-0.9,3.1-1.3,5-1.3c1.9,0,3.6,0.4,5,1.3c1.4,0.8,2.5,2.1,3.3,3.7c0.8,1.6,1.2,3.5,1.2,5.8
		c0,2.2-0.4,4.1-1.2,5.7c-0.8,1.6-1.9,2.8-3.3,3.7C709.7,324.4,708,324.8,706.1,324.8z M706.1,321.8c2,0,3.5-0.7,4.6-2.1
		c1.1-1.4,1.6-3.3,1.6-5.7c0-2.4-0.5-4.3-1.6-5.6c-1-1.4-2.6-2.1-4.6-2.1c-2,0-3.5,0.7-4.6,2c-1.1,1.3-1.6,3.3-1.6,5.7
		c0,2.4,0.5,4.2,1.6,5.6C702.5,321.1,704.1,321.8,706.1,321.8z M703.1,301.3l5.7-6.2h4.8l-7.1,6.2H703.1z"/>
	<path class="st0" d="M726.5,332.8l-1.5-2.7c1.6-0.2,2.8-0.5,3.6-0.8c0.9-0.4,1.4-0.9,1.8-1.6s0.5-1.6,0.5-2.8v-21h3.2v21.3
		c0,1.3-0.2,2.4-0.5,3.4c-0.3,0.9-0.8,1.7-1.5,2.3c-0.6,0.6-1.4,1.1-2.3,1.4C728.9,332.5,727.8,332.7,726.5,332.8z M725.2,306.8
		v-2.9h7.5v2.9H725.2z M732.5,300c-0.6,0-1.1-0.2-1.5-0.6s-0.6-0.9-0.6-1.5c0-0.6,0.2-1.1,0.6-1.5c0.4-0.4,0.9-0.6,1.5-0.6
		c0.6,0,1.1,0.2,1.5,0.6c0.4,0.4,0.6,0.9,0.6,1.5c0,0.6-0.2,1.1-0.6,1.5S733.1,300,732.5,300z"/>
	<path class="st0" d="M779.4,324.8c-1.8,0-3.4-0.4-4.7-1.3s-2.3-2.1-3-3.7s-1.1-3.5-1.1-5.7c0-2.2,0.4-4.2,1.1-5.8
		c0.7-1.6,1.7-2.8,3-3.7c1.3-0.8,2.9-1.3,4.6-1.3c1.3,0,2.4,0.2,3.3,0.6s1.6,0.8,2.2,1.3V297l3.3-1.6v28.9h-3.3v-1.7
		c-0.5,0.6-1.3,1.1-2.1,1.5S780.7,324.8,779.4,324.8z M779.8,321.8c1.1,0,2.1-0.3,3-0.8c0.9-0.5,1.6-1.2,2.1-2.1v-9.8
		c-0.4-0.6-1-1.2-1.8-1.8c-0.8-0.6-1.9-0.9-3.3-0.9c-1.9,0-3.3,0.7-4.3,2c-1,1.3-1.5,3.2-1.5,5.7c0,1.5,0.2,2.8,0.7,3.9
		c0.5,1.2,1.1,2.1,2,2.8S778.6,321.8,779.8,321.8z"/>
	<path class="st0" d="M804.6,324.8c-1.9,0-3.6-0.4-5-1.3c-1.4-0.8-2.5-2.1-3.3-3.7c-0.8-1.6-1.2-3.5-1.2-5.8c0-2.2,0.4-4.1,1.2-5.7
		c0.8-1.6,1.9-2.8,3.3-3.7c1.4-0.9,3.1-1.3,5-1.3c1.9,0,3.6,0.4,5,1.3c1.4,0.8,2.5,2.1,3.3,3.7c0.8,1.6,1.2,3.5,1.2,5.8
		c0,2.2-0.4,4.1-1.2,5.7c-0.8,1.6-1.9,2.8-3.3,3.7C808.2,324.4,806.6,324.8,804.6,324.8z M804.6,321.8c2,0,3.5-0.7,4.6-2.1
		c1.1-1.4,1.6-3.3,1.6-5.7c0-2.4-0.5-4.3-1.6-5.6c-1-1.4-2.6-2.1-4.6-2.1c-2,0-3.5,0.7-4.6,2c-1.1,1.3-1.6,3.3-1.6,5.7
		c0,2.4,0.5,4.2,1.6,5.6C801.1,321.1,802.6,321.8,804.6,321.8z"/>
	<path class="st0" d="M819,324.3v-20.4h3.2v3.8l-0.5-0.3c0.4-1.3,0.9-2.2,1.6-2.9c0.7-0.7,1.6-1,2.6-1c1.2,0,2.1,0.3,2.7,1
		c0.7,0.7,1.1,1.4,1.3,2.2c0.5-0.9,1.1-1.6,1.8-2.2c0.8-0.6,1.7-0.9,2.8-0.9c1.7,0,2.9,0.6,3.8,1.7c0.8,1.1,1.2,2.9,1.2,5.3v13.9
		h-3.2v-12.5c0-1.8-0.2-3.1-0.5-4s-1-1.3-2-1.3c-0.7,0-1.3,0.3-1.7,0.8c-0.4,0.5-0.8,1.2-1,2s-0.3,1.8-0.3,2.8v12.3h-3.2v-12.9
		c0-0.9-0.1-1.7-0.2-2.4c-0.1-0.8-0.3-1.4-0.7-1.8s-0.8-0.7-1.5-0.7c-0.7,0-1.3,0.3-1.8,0.8s-0.8,1.2-1,2s-0.3,1.8-0.3,2.8v12.3H819
		z"/>
	<path class="st0" d="M870.4,332.4v-28.5h3.3v1.8c0.6-0.6,1.4-1.1,2.2-1.6c0.8-0.5,2-0.7,3.3-0.7c1.8,0,3.4,0.4,4.8,1.3
		c1.3,0.9,2.3,2.1,3.1,3.7s1.1,3.5,1.1,5.7c0,2.3-0.4,4.2-1.1,5.8c-0.8,1.6-1.8,2.8-3.1,3.7c-1.3,0.8-2.8,1.3-4.5,1.3
		c-1.5,0-2.7-0.2-3.5-0.7c-0.9-0.5-1.6-1.1-2.1-1.7v8.5L870.4,332.4z M878.9,321.8c1.9,0,3.3-0.7,4.3-2c1-1.3,1.5-3.2,1.5-5.7
		c0-2.3-0.5-4.2-1.6-5.6c-1-1.4-2.5-2.1-4.4-2.1c-1.1,0-2.1,0.3-3,0.8c-0.9,0.5-1.6,1.2-2.1,2.1v9.7c0.6,0.8,1.4,1.5,2.2,2
		C876.7,321.5,877.7,321.8,878.9,321.8z"/>
	<path class="st0" d="M892.9,324.3v-2.9h4.3v-14.6h-4.3v-2.9h7.4v4.6l-0.2-0.6c0.4-0.9,1.1-1.7,2-2.4c0.9-0.7,1.9-1.2,2.9-1.6
		c1.1-0.4,2.2-0.5,3.3-0.5c1,0,1.9,0.1,2.7,0.3c0.7,0.2,1.3,0.4,1.8,0.7v7h-3.3v-6.1l1,1.6c-0.3-0.1-0.7-0.2-1.1-0.2
		s-0.8-0.1-1.2-0.1c-1.3,0-2.6,0.2-3.8,0.7c-1.2,0.4-2.1,1.1-2.8,2c-0.7,0.9-1.1,1.9-1.1,3.2v9h6v2.9H892.9z"/>
	<path class="st0" d="M927.8,324.8c-1.9,0-3.6-0.4-5-1.3c-1.4-0.8-2.5-2.1-3.3-3.7c-0.8-1.6-1.2-3.5-1.2-5.8c0-2.2,0.4-4.1,1.2-5.7
		c0.8-1.6,1.9-2.8,3.3-3.7c1.4-0.9,3.1-1.3,5-1.3c1.9,0,3.6,0.4,5,1.3c1.4,0.8,2.5,2.1,3.3,3.7c0.8,1.6,1.2,3.5,1.2,5.8
		c0,2.2-0.4,4.1-1.2,5.7c-0.8,1.6-1.9,2.8-3.3,3.7C931.4,324.4,929.8,324.8,927.8,324.8z M927.8,321.8c2,0,3.5-0.7,4.6-2.1
		c1.1-1.4,1.6-3.3,1.6-5.7c0-2.4-0.5-4.3-1.6-5.6c-1-1.4-2.6-2.1-4.6-2.1c-2,0-3.5,0.7-4.6,2c-1.1,1.3-1.6,3.3-1.6,5.7
		c0,2.4,0.5,4.2,1.6,5.6C924.3,321.1,925.8,321.8,927.8,321.8z"/>
	<path class="st0" d="M952.4,324.8c-1.5,0-2.9-0.3-4.2-1s-2.4-1.5-3.3-2.6l2.2-2c0.6,0.7,1.4,1.3,2.4,1.9c1,0.6,2,0.8,3.2,0.8
		c1.1,0,2.1-0.2,2.8-0.7s1.2-1.1,1.2-2c0-0.7-0.2-1.4-0.7-1.9c-0.5-0.5-1.1-0.9-1.9-1.3c-0.8-0.4-1.6-0.7-2.5-1.1
		c-1.2-0.4-2.2-0.9-3.2-1.5c-1-0.5-1.8-1.2-2.3-2c-0.6-0.8-0.9-1.7-0.9-2.9c0-1.1,0.3-2,0.9-2.8c0.6-0.8,1.5-1.4,2.5-1.8
		c1.1-0.4,2.3-0.6,3.7-0.6c1.5,0,2.9,0.3,4,0.9s2.2,1.3,3,2.3l-2.2,1.8c-0.5-0.5-1.2-1-2-1.4c-0.8-0.4-1.8-0.7-3-0.7
		c-1.2,0-2.1,0.2-2.8,0.6c-0.7,0.4-1.1,1-1.1,1.8c0,0.6,0.2,1.1,0.7,1.6c0.5,0.4,1,0.8,1.8,1.1c0.7,0.3,1.5,0.7,2.3,1
		c1.1,0.4,2.1,0.9,3.2,1.4s1.9,1.2,2.6,2s1,1.9,1,3.3c0,1.8-0.7,3.2-2,4.2C956.4,324.3,954.6,324.8,952.4,324.8z M949.5,301.3
		l5.7-6.2h4.8l-7.1,6.2H949.5z"/>
	<path class="st0" d="M977.6,324.8c-2.6,0-4.7-0.9-6.3-2.8s-2.3-4.5-2.3-7.9c0-2.2,0.4-4.2,1.1-5.8s1.7-2.8,3-3.7
		c1.3-0.9,2.9-1.3,4.7-1.3c1.7,0,3.2,0.4,4.5,1.2c1.2,0.8,2.2,1.9,2.8,3.4l-3,1.1c-0.3-0.8-0.8-1.4-1.5-2c-0.7-0.5-1.6-0.8-2.8-0.8
		c-1.9,0-3.3,0.7-4.1,2.1c-0.9,1.4-1.3,3.3-1.3,5.6c0,2.4,0.4,4.3,1.3,5.7c0.9,1.4,2.2,2,4,2c1.1,0,2.1-0.3,2.9-0.8
		c0.8-0.5,1.4-1.3,1.7-2.3l3,1.1c-0.5,1.6-1.5,2.8-2.8,3.7C981.1,324.3,979.5,324.8,977.6,324.8z"/>
	<path class="st0" d="M995,306.8v-2.9h7.4v2.9H995z M995,324.3v-2.9h14.5v2.9H995z M1002.3,300c-0.6,0-1.1-0.2-1.5-0.6
		c-0.4-0.4-0.6-0.9-0.6-1.5c0-0.6,0.2-1.1,0.6-1.5c0.4-0.4,0.9-0.6,1.5-0.6c0.6,0,1.1,0.2,1.5,0.6c0.4,0.4,0.6,0.9,0.6,1.5
		c0,0.6-0.2,1.1-0.6,1.5S1002.9,300,1002.3,300z M1000.7,323.7v-19.8h3.3v19.8H1000.7z"/>
	<path class="st0" d="M1026.8,324.8c-2,0-3.6-0.5-5-1.4s-2.5-2.3-3.2-3.9s-1.1-3.4-1.1-5.4c0-2.3,0.4-4.2,1.2-5.8s1.9-2.8,3.3-3.7
		c1.4-0.8,3-1.3,4.9-1.3c1.5,0,2.9,0.3,4.2,1c1.3,0.7,2.3,1.8,3.1,3.2s1.2,3.3,1.2,5.6c0,0.3,0,0.6,0,0.9s0,0.8-0.1,1.3h-15.1v-2.9
		h12c0-1.6-0.3-2.9-0.9-3.8c-0.6-0.9-1.2-1.5-2-1.9c-0.8-0.4-1.6-0.5-2.3-0.5c-2.1,0-3.6,0.7-4.6,2c-1,1.3-1.5,3.1-1.5,5.3
		c0,2.6,0.5,4.6,1.6,6.1s2.6,2.2,4.5,2.2c0.8,0,1.6-0.1,2.4-0.4c0.8-0.3,1.6-0.7,2.4-1.3l1.8,2.1c-0.9,0.7-1.9,1.3-3,1.8
		C1029.4,324.5,1028.1,324.8,1026.8,324.8z"/>
	<path class="st0" d="M1046.8,332.8l-1.5-2.7c1.6-0.2,2.8-0.5,3.6-0.8c0.9-0.4,1.4-0.9,1.8-1.6s0.5-1.6,0.5-2.8v-21h3.2v21.3
		c0,1.3-0.2,2.4-0.5,3.4c-0.3,0.9-0.8,1.7-1.5,2.3c-0.6,0.6-1.4,1.1-2.3,1.4C1049.2,332.5,1048.1,332.7,1046.8,332.8z M1045.5,306.8
		v-2.9h7.5v2.9H1045.5z M1052.8,300c-0.6,0-1.1-0.2-1.5-0.6s-0.6-0.9-0.6-1.5c0-0.6,0.2-1.1,0.6-1.5c0.4-0.4,0.9-0.6,1.5-0.6
		c0.6,0,1.1,0.2,1.5,0.6c0.4,0.4,0.6,0.9,0.6,1.5c0,0.6-0.2,1.1-0.6,1.5S1053.4,300,1052.8,300z"/>
	<path class="st0" d="M1075.7,324.8c-0.8,0-1.4-0.3-1.9-0.8c-0.5-0.5-0.8-1.2-0.8-1.9c0-0.7,0.3-1.3,0.8-1.9
		c0.5-0.5,1.2-0.8,1.9-0.8c0.8,0,1.4,0.3,1.9,0.8c0.5,0.5,0.8,1.2,0.8,1.9c0,0.7-0.3,1.3-0.8,1.9
		C1077.1,324.6,1076.4,324.8,1075.7,324.8z M1074.8,316.6l-0.7-12v-8.7h3.3v8.7l-0.7,12H1074.8z"/>
</g>
<rect x="472" y="253" class="st0" width="760" height="4"/>
</svg>
